<svg enable-background="new 0 0 217.4 73.3" viewBox="0 0 217.4 73.3" xmlns="http://www.w3.org/2000/svg"><path d="m217.4 47.1c0 2.4-2 4.4-4.4 4.4s-4.4-2-4.4-4.4 2-4.4 4.4-4.4 4.4 2 4.4 4.4z" fill="#d93d36"/><g fill="#033f41"><path d="m20.3 51.4c-2.7 0-5.4-.5-7.9-1.6-4.9-2.1-8.7-6-10.8-10.8-2.1-5-2.1-10.7 0-15.8 2.1-4.9 6-8.8 10.8-10.9 2.5-1.1 5.2-1.6 7.9-1.6s5.4.5 7.9 1.6c4.9 2.1 8.8 6 10.9 10.9 2.1 5 2.1 10.7 0 15.8-2.1 4.9-6 8.8-10.9 10.8-2.5 1.1-5.2 1.6-7.9 1.6m0-8.7c1.5 0 3-.3 4.4-.8 1.3-.5 2.5-1.4 3.5-2.4 1-1.1 1.8-2.3 2.4-3.7.6-1.5.9-3.1.8-4.7 0-1.6-.3-3.2-.8-4.7-.5-1.4-1.3-2.6-2.4-3.7-1-1-2.2-1.8-3.5-2.4-1.4-.6-2.9-.9-4.4-.8-1.5 0-3 .3-4.4.8-1.3.5-2.5 1.4-3.6 2.4-1 1.1-1.8 2.3-2.4 3.7-.6 1.5-.9 3.1-.8 4.7 0 1.6.3 3.2.8 4.7.5 1.4 1.3 2.6 2.4 3.7 1 1 2.2 1.8 3.6 2.4 1.4.5 2.9.8 4.4.8"/><path d="m48.9 67.4c-.9 0-1.8 0-2.7-.2-.7-.1-1.4-.2-2.1-.4s-1.4-.4-2-.6v-8.8c.4.2.9.5 1.4.6.5.2 1 .3 1.5.4.6.1 1.3.2 2 .2 1.5.1 3.1-.4 4.2-1.4 1.1-1.1 2-2.3 2.6-3.7l1.2-2.8-15.7-39.1h10l10.4 27.1h.3l10-27.1h10l-16.8 42.6c-1.2 3.6-3.2 6.9-5.8 9.8-2.3 2.2-5.3 3.5-8.5 3.4"/><path d="m95.1 51.4c-2.3 0-4.6-.3-6.8-1.1-1.7-.6-3.4-1.5-5-2.5s-3-2.2-4.1-3.6l6-6c.8.9 1.7 1.7 2.7 2.4 1 .6 2.1 1.2 3.2 1.6 1.3.5 2.7.8 4.1.8 1.6.1 3.2-.3 4.5-1.2.9-.6 1.5-1.7 1.5-2.8-.1-.9-.6-1.7-1.5-2.1-1.2-.6-2.5-1.1-3.7-1.5-1.5-.5-3.1-1-4.9-1.6-1.7-.6-3.4-1.3-4.9-2.2s-2.8-2.1-3.7-3.5c-1.1-1.6-1.6-3.5-1.5-5.4 0-1.6.3-3.1 1-4.5.7-1.5 1.7-2.8 2.9-3.8 1.4-1.2 3-2.1 4.7-2.6 2-.7 4.1-1 6.2-1s4.2.3 6.3 1c1.6.5 3.1 1.2 4.5 2.1 1.3.8 2.5 1.8 3.6 3l-6 6c-.7-.6-1.4-1.2-2.2-1.6-.8-.5-1.7-.8-2.7-1.1-1.1-.3-2.3-.5-3.5-.5-1.4-.1-2.8.2-3.9 1-.7.5-1.2 1.3-1.2 2.2.1.9.6 1.7 1.5 2.1 1.2.6 2.5 1.1 3.7 1.5 1.5.5 3.1 1 4.9 1.6 1.7.6 3.4 1.3 4.9 2.2s2.8 2.1 3.7 3.5c1.1 1.6 1.6 3.5 1.5 5.4 0 1.6-.3 3.2-1 4.7s-1.7 2.9-3 3.9c-1.4 1.2-3.1 2.1-4.9 2.7-2.4.6-4.6 1-6.9.9"/><path d="m132.3 51.4c-3.8 0-6.8-1.2-9.1-3.6-2.2-2.4-3.3-5.8-3.3-10.4v-17.1h-7.2v-8.8h4c1.1.1 2.2-.2 3-.9.7-.9 1.1-2 1-3.2v-7.4h8.4v11.6h8.8v8.8h-8.8v16.1c-.1 1.7.4 3.3 1.4 4.7 1 1 2.4 1.6 3.8 1.5 1.1 0 2.2-.2 3.3-.6.5-.2 1-.3 1.5-.6v8.7c-.6.2-1.2.4-1.9.6s-1.4.3-2.1.4c-1 .2-1.9.2-2.8.2"/><path d="m162.2 51.4c-5.5 0-10.8-2.1-14.7-6-1.9-1.8-3.4-4-4.4-6.5-2.1-5-2.1-10.7 0-15.8 2.1-4.9 6-8.8 10.8-10.9 2.5-1.1 5.2-1.6 7.9-1.6 2.6 0 5.3.5 7.7 1.6 2.3 1 4.3 2.4 6.1 4.2 1.7 1.8 3 3.9 3.9 6.2 1 2.4 1.5 5 1.4 7.6 0 .6 0 1.1-.1 1.7-.1.5-.1 1-.2 1.4-.1.5-.1.9-.2 1.3h-29.1c.2 1.1.6 2.2 1.2 3.2s1.4 1.9 2.3 2.7c1 .8 2.1 1.4 3.3 1.8 2.9.9 6 .9 8.9-.1 1.2-.4 2.3-1 3.3-1.6 1.1-.7 2-1.5 2.9-2.5l5.2 6.5c-1.1 1.4-2.5 2.5-4 3.4-1.6 1-3.3 1.7-5.1 2.3-2.2.8-4.6 1.2-7.1 1.1m8.8-24.3c-.5-2.1-1.7-4-3.3-5.5-1.8-1.5-4-2.2-6.3-2.1-2.4-.1-4.8.6-6.7 2.1-1.6 1.4-2.8 3.3-3.3 5.5z"/><path d="m185.6 11.6h9.2v5.6h.4c.8-1.2 1.8-2.3 2.9-3.2s2.3-1.6 3.5-2.2c1.5-.7 3.1-1 4.8-1h1.6v10c-.3-.1-.6-.1-.9-.2s-.6-.1-1-.2-.9-.1-1.3-.1c-1.3 0-2.7.3-3.9.8s-2.3 1.3-3.2 2.2c-.9 1-1.7 2.2-2.1 3.5-.5 1.5-.8 3.1-.8 4.6v19.1h-9.2z"/></g></svg>